<?xml version="1.0" encoding="utf-8"?>
<!-- Generator: Adobe Illustrator 25.2.1, SVG Export Plug-In . SVG Version: 6.00 Build 0)  -->
<svg version="1.1" id="Layer_1" xmlns="http://www.w3.org/2000/svg" xmlns:xlink="http://www.w3.org/1999/xlink" x="0px" y="0px"
	 viewBox="0 0 500 500" style="enable-background:new 0 0 500 500;" xml:space="preserve">
<style type="text/css">
	.st0{fill:#FFFFFF;}
	.st1{fill:#1266F1;}
	.st2{fill:#F93154;}
	.st3{fill:#00B74A;}
</style>
<circle class="st0" cx="250" cy="250" r="243.28"/>
<path class="st1" d="M440.82,98.97C396.22,42.78,327.31,6.72,250,6.72S103.78,42.78,59.18,98.97c-3.08,3.85-6.03,7.83-8.84,11.89
	c4.93,2.93,9.95,5.77,15.03,8.48c16.46,8.81,32.08,19.09,47.5,29.6c39.07,26.68,86.27,42.27,137.14,42.27
	c50.87,0,98.07-15.59,137.14-42.27c15.41-10.51,31.04-20.79,47.5-29.6c5.08-2.72,10.1-5.56,15.03-8.48
	C446.85,106.79,443.9,102.82,440.82,98.97z M250,158.77c-21.75,0-39.37-17.62-39.37-39.37c0-21.75,17.62-39.4,39.37-39.4
	c21.75,0,39.37,17.65,39.37,39.4C289.37,141.14,271.75,158.77,250,158.77z"/>
<polygon class="st2" points="294.3,250.18 294.3,288.23 269.03,288.23 269.03,311.83 230.97,311.83 230.97,288.23 205.7,288.23 
	205.7,250.18 230.97,250.18 230.97,221.08 269.03,221.08 269.03,250.18 "/>
<path class="st3" d="M33.04,139.59c-0.03,0.09-0.09,0.21-0.18,0.33c-4.93,9.71-9.23,19.8-12.84,30.23
	c-8.72,25.06-13.47,52.01-13.47,80.03c0,108.31,70.74,200.11,168.53,231.71c15.5,4.99,31.66,8.48,48.36,10.31
	c0.72,0.09,1.43,0.15,2.15,0.21c0.24-5.14,0.33-10.28,0.33-15.47C225.92,333.25,148.47,207.64,33.04,139.59z M100.76,214.69
	c43.4,36.11,74.02,87.02,84.15,145C163.28,307.47,134.88,258.78,100.76,214.69z"/>
<path class="st3" d="M479.98,170.18c-3.61-10.43-7.92-20.52-12.84-30.23c-0.06-0.12-0.12-0.24-0.18-0.36
	c-115.42,68.08-192.85,193.66-192.85,337.34c0,5.2,0.09,10.34,0.33,15.47c0.72-0.06,1.43-0.12,2.15-0.21
	c16.7-1.82,32.86-5.32,48.36-10.34c97.8-31.6,168.5-123.4,168.5-231.68C493.45,222.16,488.7,195.24,479.98,170.18z M315.12,359.74
	c10.1-58.01,40.74-108.97,84.18-145.09C365.18,258.78,336.75,307.5,315.12,359.74z"/>
</svg>
