<?xml version="1.0" standalone="no"?>
<!DOCTYPE svg PUBLIC "-//W3C//DTD SVG 20010904//EN"
 "http://www.w3.org/TR/2001/REC-SVG-20010904/DTD/svg10.dtd">
<svg version="1.0" xmlns="http://www.w3.org/2000/svg"
 width="700.000000pt" height="700.000000pt" viewBox="0 0 700.000000 700.000000"
 preserveAspectRatio="xMidYMid meet">
<metadata>
Created by potrace 1.14, written by Peter Selinger 2001-2017
</metadata>
<g transform="translate(0.000000,700.000000) scale(0.100000,-0.100000)"
fill="#000000" stroke="none">
<path d="M3310 6900 c-900 -49 -1751 -460 -2354 -1136 -83 -92 -232 -282 -241
-306 -5 -14 -8 -13 204 -131 201 -111 289 -165 581 -357 289 -190 433 -272
635 -361 901 -395 1942 -378 2831 46 170 81 278 144 559 330 284 187 363 236
588 360 125 69 176 103 172 112 -9 25 -157 214 -241 307 -542 607 -1276 999
-2082 1110 -103 15 -433 37 -492 34 -14 0 -86 -4 -160 -8z m372 -1053 c221
-80 368 -288 368 -520 -1 -289 -227 -528 -515 -544 -113 -7 -184 8 -283 57
-322 161 -402 590 -160 856 83 90 197 154 318 178 61 12 206 -3 272 -27z"/>
<path d="M419 4953 c-285 -616 -385 -1285 -289 -1946 132 -906 618 -1713 1362
-2260 304 -224 686 -411 1062 -522 166 -49 500 -114 589 -115 16 0 17 16 17
208 -1 1731 -805 3343 -2185 4382 -166 124 -489 340 -511 340 -3 0 -23 -39
-45 -87z m1204 -1155 c187 -186 279 -294 404 -473 239 -341 421 -743 517
-1145 32 -132 46 -204 37 -193 -4 4 -34 69 -66 143 -249 574 -610 1198 -989
1708 -58 78 -101 142 -96 142 6 0 93 -82 193 -182z"/>
<path d="M6389 4952 c-875 -562 -1540 -1303 -1989 -2217 -373 -760 -559 -1565
-560 -2422 0 -235 -18 -212 143 -188 625 94 1185 340 1675 737 113 91 351 327
452 448 410 491 668 1069 760 1697 85 587 12 1210 -205 1748 -69 169 -123 285
-132 285 -5 -1 -69 -40 -144 -88z m-915 -1114 c-389 -524 -765 -1177 -1006
-1748 -22 -52 -44 -99 -48 -104 -5 -4 2 43 16 105 108 514 339 996 682 1429
77 97 433 460 452 460 5 0 -38 -64 -96 -142z"/>
<path d="M3230 3700 l0 -200 -175 0 -175 0 0 -270 0 -270 175 0 175 0 2 -162
3 -163 265 0 265 0 3 163 2 162 175 0 175 0 0 270 0 270 -175 0 -175 0 0 200
0 200 -270 0 -270 0 0 -200z"/>
</g>
</svg>
